0
SECTION
2
HEADER
9
$INSUNITS
70
4
9
$ACADVER
1
AC1014
9
$HANDSEED
5
FFFF
0
ENDSEC
0
SECTION
2
TABLES
0
TABLE
2
VPORT
5
8
100
AcDbSymbolTable
0
ENDTAB
0
TABLE
2
LTYPE
5
5
100
AcDbSymbolTable
0
LTYPE
5
14
100
AcDbSymbolTableRecord
100
AcDbLinetypeTableRecord
2
BYBLOCK
70
0
0
LTYPE
5
15
100
AcDbSymbolTableRecord
100
AcDbLinetypeTableRecord
2
BYLAYER
70
0
0
LTYPE
5
16
100
AcDbSymbolTableRecord
100
AcDbLinetypeTableRecord
2
DASHED
70
0
3
Dashed __ __ __ __ __ __ __ __ __ __ __ __ __ _
72
65
73
2
40
0.75
49
0.5
74
0
49
-0.25
74
0
0
ENDTAB
0
TABLE
2
LAYER
5
2
100
AcDbSymbolTable
70
3
0
LAYER
5
50
100
AcDbSymbolTableRecord
100
AcDbLayerTableRecord
2
1
70
0
62
7
6
DASHED
0
LAYER
5
51
100
AcDbSymbolTableRecord
100
AcDbLayerTableRecord
2
0
70
0
62
7
6
CONTINUOUS
0
ENDTAB
0
TABLE
2
STYLE
5
3
100
AcDbSymbolTable
70
1
0
STYLE
5
11
100
AcDbSymbolTableRecord
100
AcDbTextStyleTableRecord
2
STANDARD
70
0
0
ENDTAB
0
TABLE
2
VIEW
5
6
100
AcDbSymbolTable
70
0
0
ENDTAB
0
TABLE
2
UCS
5
7
100
AcDbSymbolTable
70
0
0
ENDTAB
0
TABLE
2
APPID
5
9
100
AcDbSymbolTable
70
2
0
APPID
5
12
100
AcDbSymbolTableRecord
100
AcDbRegAppTableRecord
2
ACAD
70
0
0
ENDTAB
0
TABLE
2
DIMSTYLE
5
A
100
AcDbSymbolTable
70
1
0
ENDTAB
0
TABLE
2
BLOCK_RECORD
5
1
100
AcDbSymbolTable
70
1
0
BLOCK_RECORD
5
1F
100
AcDbSymbolTableRecord
100
AcDbBlockTableRecord
2
*MODEL_SPACE
0
BLOCK_RECORD
5
1B
100
AcDbSymbolTableRecord
100
AcDbBlockTableRecord
2
*PAPER_SPACE
0
ENDTAB
0
ENDSEC
0
SECTION
2
BLOCKS
0
BLOCK
5
20
100
AcDbEntity
100
AcDbBlockBegin
2
*MODEL_SPACE
0
ENDBLK
5
21
100
AcDbEntity
100
AcDbBlockEnd
0
BLOCK
5
1C
100
AcDbEntity
100
AcDbBlockBegin
2
*PAPER_SPACE
0
ENDBLK
5
1D
100
AcDbEntity
100
AcDbBlockEnd
0
ENDSEC
0
SECTION
2
ENTITIES
0
ELLIPSE
5
100
100
AcDbEntity
8
0
100
AcDbEllipse
10
0
20
0
30
0
11
0
21
61.440000000000019
31
0.0
40
0.88061690475762933
41
5.418058736526377
42
7.1483118778327954
0
SPLINE
5
101
100
AcDbEntity
8
0
100
AcDbSpline
70
0
71
3
72
176
73
172
74
0
42
0.000000001
43
0.0000000001
44
0.0000000001
40
0
40
0
40
0
40
0
40
0.0078125
40
0.015625
40
0.0234375
40
0.03125
40
0.03515625
40
0.0390625
40
0.04296875
40
0.046875
40
0.05078125
40
0.0546875
40
0.05859375
40
0.0625
40
0.06640625
40
0.0703125
40
0.07421875
40
0.078125
40
0.0859375
40
0.09375
40
0.09765625
40
0.1015625
40
0.109375
40
0.1171875
40
0.125
40
0.1328125
40
0.140625
40
0.1484375
40
0.15625
40
0.1640625
40
0.16796875
40
0.171875
40
0.1796875
40
0.1875
40
0.1953125
40
0.203125
40
0.2109375
40
0.21875
40
0.22265625
40
0.2265625
40
0.234375
40
0.23828125
40
0.2421875
40
0.24609375
40
0.25
40
0.25390625
40
0.2578125
40
0.26171875
40
0.265625
40
0.2734375
40
0.28125
40
0.2890625
40
0.296875
40
0.3125
40
0.328125
40
0.3359375
40
0.34375
40
0.3515625
40
0.359375
40
0.3671875
40
0.375
40
0.3828125
40
0.390625
40
0.3984375
40
0.40625
40
0.4140625
40
0.421875
40
0.4296875
40
0.4375
40
0.4453125
40
0.453125
40
0.4609375
40
0.46875
40
0.4765625
40
0.484375
40
0.5
40
0.515625
40
0.5234375
40
0.53125
40
0.5390625
40
0.546875
40
0.5546875
40
0.5625
40
0.5703125
40
0.578125
40
0.5859375
40
0.59375
40
0.6015625
40
0.609375
40
0.6171875
40
0.625
40
0.6328125
40
0.640625
40
0.6484375
40
0.65625
40
0.6640625
40
0.66796875
40
0.671875
40
0.67578125
40
0.6796875
40
0.681640625
40
0.68359375
40
0.685546875
40
0.6875
40
0.6884765625
40
0.689453125
40
0.69140625
40
0.6923828125
40
0.693359375
40
0.6943359375
40
0.6953125
40
0.697265625
40
0.69921875
40
0.7001953125
40
0.701171875
40
0.703125
40
0.70703125
40
0.7109375
40
0.712890625
40
0.71484375
40
0.71875
40
0.72265625
40
0.7265625
40
0.73046875
40
0.734375
40
0.7421875
40
0.75
40
0.7578125
40
0.765625
40
0.7734375
40
0.78125
40
0.796875
40
0.8125
40
0.828125
40
0.8359375
40
0.84375
40
0.859375
40
0.8671875
40
0.875
40
0.8828125
40
0.890625
40
0.89453125
40
0.8984375
40
0.90234375
40
0.90625
40
0.91015625
40
0.9140625
40
0.91796875
40
0.921875
40
0.92578125
40
0.9296875
40
0.93359375
40
0.9375
40
0.94140625
40
0.9453125
40
0.94921875
40
0.953125
40
0.95703125
40
0.9609375
40
0.96484375
40
0.966796875
40
0.96875
40
0.97265625
40
0.974609375
40
0.9765625
40
0.978515625
40
0.98046875
40
0.984375
40
0.98828125
40
0.9921875
40
0.9989966380632419
40
0.9989966380632419
40
0.9989966380632419
40
0.9989966380632419
10
5.0708853138276138e-15
20
98.751856036205766
30
0
10
-0.68529054567881431
20
98.75185603620578
30
0
10
-1.9060474190731347
20
98.668839303271625
30
0
10
-3.4204202967282922
20
98.177136845103306
30
0
10
-4.7517311832481495
20
97.18607864162955
30
0
10
-5.7959696541324561
20
96.145030924765891
30
0
10
-6.6434400355839962
20
95.310145355564785
30
0
10
-7.2993071724875112
20
94.716776433734239
30
0
10
-7.9828962272176867
20
94.176742115527361
30
0
10
-8.6794884254838216
20
93.665546594743532
30
0
10
-9.3774889916791828
20
93.165120859145446
30
0
10
-10.064489139297237
20
92.65547416237375
30
0
10
-10.728212126746822
20
92.117875900593816
30
0
10
-11.356667043674962
20
91.530476633994112
30
0
10
-11.936346923913275
20
90.88519443756843
30
0
10
-12.453143902482594
20
90.189644273804888
30
0
10
-12.889983377178588
20
89.447911580286444
30
0
10
-13.36426881519918
20
88.406038618517954
30
0
10
-13.785186885387564
20
87.023713336623402
30
0
10
-14.04239743515269
20
85.583833757739626
30
0
10
-14.191898355576946
20
84.428323095233708
30
0
10
-14.311119085175005
20
83.274713103281584
30
0
10
-14.4064499723863
20
81.834756130214416
30
0
10
-14.451095632485391
20
80.110983972075303
30
0
10
-14.441339284365522
20
78.391708236387259
30
0
10
-14.393091603896108
20
76.677118879923654
30
0
10
-14.320829387578883
20
74.968494053638082
30
0
10
-14.245455133145066
20
73.261866317893904
30
0
10
-14.194786234516059
20
71.547669657779494
30
0
10
-14.195075514113665
20
70.10573244376063
30
0
10
-14.234291567327517
20
68.939998916508785
30
0
10
-14.303600010452943
20
67.763844108059004
30
0
10
-14.461122067627217
20
66.287189778673948
30
0
10
-14.814245574997233
20
64.557696303993822
30
0
10
-15.381234047459253
20
62.922197094441863
30
0
10
-16.213648779985856
20
61.433079287263922
30
0
10
-17.356764775565519
20
60.140509852913411
30
0
10
-18.502550351390902
20
59.232353371235732
30
0
10
-19.498560456489862
20
58.611812557085763
30
0
10
-20.534259415363906
20
58.061744065757459
30
0
10
-21.615676225609537
20
57.629887640330423
30
0
10
-22.729161701481033
20
57.369283226319048
30
0
10
-23.576567346510021
20
57.274769392586677
30
0
10
-24.432403090594931
20
57.274526157871492
30
0
10
-25.292633241951705
20
57.352767350037169
30
0
10
-26.153273348617869
20
57.495983519334573
30
0
10
-27.010298636735289
20
57.689969016918099
30
0
10
-27.859794380206878
20
57.921026267940661
30
0
10
-28.976663184980499
20
58.2584867115634
30
0
10
-30.342713489771942
20
58.731577310674666
30
0
10
-31.936359512781998
20
59.382013963071579
30
0
10
-33.486656313115439
20
60.113790153210012
30
0
10
-35.497868543852661
20
61.199968663185118
30
0
10
-37.921384186452961
20
62.739034591535685
30
0
10
-40.283780737224745
20
64.39139791636039
30
0
10
-42.171892031687861
20
65.706873188958568
30
0
10
-43.618374644501685
20
66.641596721082948
30
0
10
-45.125193921404083
20
67.477031905042082
30
0
10
-46.726056205658281
20
68.163110730260357
30
0
10
-48.399685298115998
20
68.687457844153073
30
0
10
-50.119856643473845
20
69.041269134268532
30
0
10
-51.861386918186341
20
69.214344241070677
30
0
10
-53.599825296959345
20
69.198531491352796
30
0
10
-55.306749729735465
20
68.97888071367521
30
0
10
-56.979088012379009
20
68.582458316334808
30
0
10
-58.624295892525922
20
68.053672039360762
30
0
10
-60.247297310634266
20
67.432971600299965
30
0
10
-61.853504096820373
20
66.760767649798581
30
0
10
-63.448908329745777
20
66.081585128587705
30
0
10
-65.03089349924204
20
65.390226292943794
30
0
10
-66.595541874129054
20
64.674391679649318
30
0
10
-68.139572807473655
20
63.924246464423994
30
0
10
-69.658435290478437
20
63.127065498083311
30
0
10
-71.152442791724738
20
62.280070720737903
30
0
10
-73.127134760596036
20
61.111695368236632
30
0
10
-75.587285841712671
20
59.61894168281458
30
0
10
-78.108493326003213
20
58.204194733215928
30
0
10
-80.076007753164888
20
57.009882538935237
30
0
10
-81.504964994799366
20
56.05495116257282
30
0
10
-82.864288020710703
20
55.011530682460332
30
0
10
-84.136245440072116
20
53.857430640919048
30
0
10
-85.342643308123684
20
52.624288328904726
30
0
10
-86.501636893028561
20
51.338698667607652
30
0
10
-87.633003729238254
20
50.029739581969665
30
0
10
-88.753617294399035
20
48.721483650067377
30
0
10
-89.864226998009528
20
47.409601474727367
30
0
10
-90.967146393241606
20
46.092574217418907
30
0
10
-92.064344452533931
20
44.768080232180438
30
0
10
-93.157604327584821
20
43.434198544130695
30
0
10
-94.249797033787587
20
42.08820830149827
30
0
10
-95.338553560685483
20
40.730905312814372
30
0
10
-96.416154231727091
20
39.366670577493643
30
0
10
-97.476011448249892
20
37.999071849123766
30
0
10
-98.51122803069147
20
36.632100943650791
30
0
10
-99.51501304520086
20
35.268866673414145
30
0
10
-100.31955230418387
20
34.141132614586944
30
0
10
-100.94135382713941
20
33.22095398341969
30
0
10
-101.39614746998689
20
32.515326824672222
30
0
10
-101.83872940312682
20
31.788086365443633
30
0
10
-102.19682978154161
20
31.158856690219242
30
0
10
-102.47655140461961
20
30.638459231035377
30
0
10
-102.68288716598447
20
30.238876926837577
30
0
10
-102.88566440667648
20
29.829243059100222
30
0
10
-103.05167978089328
20
29.478835857775209
30
0
10
-103.18252043573673
20
29.192747819510167
30
0
10
-103.31254810582743
20
28.902510309478807
30
0
10
-103.41260642444171
20
28.616126379490812
30
0
10
-103.42515028228995
20
28.353953616504196
30
0
10
-103.37378970268063
20
28.175170079009444
30
0
10
-103.26162565698834
20
28.01571660365623
30
0
10
-103.04766092913101
20
27.826662324066938
30
0
10
-102.68391699502524
20
27.632076008165704
30
0
10
-102.25995127914103
20
27.485689473209753
30
0
10
-101.92713161097771
20
27.3930461430562
30
0
10
-101.60576916873858
20
27.315439898809775
30
0
10
-101.06724660395271
20
27.216556994476736
30
0
10
-100.35475395890764
20
27.165533982675448
30
0
10
-99.681820529815468
20
27.194137485372242
30
0
10
-99.146123739657583
20
27.24061077043471
30
0
10
-98.604435347247303
20
27.29405541462345
30
0
10
-97.9151986762718
20
27.371434074222222
30
0
10
-97.073135765320515
20
27.480689487908769
30
0
10
-96.219732752432208
20
27.605018327429732
30
0
10
-95.358825062044858
20
27.74331751974248
30
0
10
-94.20605273309792
20
27.944758093634409
30
0
10
-92.765022715179072
20
28.225838227753229
30
0
10
-91.068044173284676
20
28.599735915060485
30
0
10
-89.399549282261887
20
29.018745635404748
30
0
10
-87.753400700687394
20
29.492707527352419
30
0
10
-86.122120294100583
20
30.031776990482474
30
0
10
-83.970111571256098
20
30.84637895412655
30
0
10
-81.350656768526846
20
32.051274822839005
30
0
10
-78.404381112611119
20
33.832719141964596
30
0
10
-76.046428572239805
20
35.47793111501808
30
0
10
-74.174563134386119
20
36.815802881166569
30
0
10
-72.297144017112885
20
38.141439845518903
30
0
10
-70.398980774623396
20
39.430935582829477
30
0
10
-68.465385485183162
20
40.669277846443279
30
0
10
-66.994461276912062
20
41.570781064430633
30
0
10
-65.495134138038949
20
42.430336005865826
30
0
10
-64.196770634241574
20
43.045231394993522
30
0
10
-63.114073424862227
20
43.439967609188614
30
0
10
-62.278283027088662
20
43.678736662073277
30
0
10
-61.426650518993746
20
43.85543333762876
30
0
10
-60.565881217824291
20
43.964461730820005
30
0
10
-59.702696745195539
20
44.001375855911398
30
0
10
-58.844973568419967
20
43.95793668543724
30
0
10
-57.993819622088381
20
43.846341033345311
30
0
10
-57.146251481764494
20
43.691079186342208
30
0
10
-56.300253633925628
20
43.513686356599123
30
0
10
-55.453511641776494
20
43.336784158998896
30
0
10
-54.603938850699194
20
43.181603672113297
30
0
10
-53.748836400638723
20
43.07385171704712
30
0
10
-52.888156648504527
20
43.019537440550835
30
0
10
-52.025423564600999
20
42.998548515464108
30
0
10
-51.163207418324028
20
42.996603177806271
30
0
10
-50.305239876674143
20
42.995420035372973
30
0
10
-49.450773968610875
20
42.989002689016957
30
0
10
-48.593826414442162
20
42.985385331240195
30
0
10
-47.873503603510692
20
42.989104944288954
30
0
10
-47.290979178267492
20
42.998961846304049
30
0
10
-46.703214157069752
20
43.014866024811845
30
0
10
-46.117547731375275
20
43.014318594491073
30
0
10
-45.554302981758319
20
42.945422707354695
30
0
10
-45.14872511966945
20
42.84506570411024
30
0
10
-44.762615134326722
20
42.689727043384835
30
0
10
-44.26914290173859
20
42.422826655484755
30
0
10
-43.686248499967128
20
41.995471320448146
30
0
10
-43.019877094883526
20
41.396284747685996
30
0
10
-42.203525332471052
20
40.619598713593064
30
0
10
-41.594017742177023
20
40.10045148522422
30
0
10
-41.183578983003422
20
39.846529730549889
30
0
0
SPLINE
5
102
100
AcDbEntity
8
0
100
AcDbSpline
70
0
71
3
72
176
73
172
74
0
42
0.000000001
43
0.0000000001
44
0.0000000001
40
0
40
0
40
0
40
0
40
0.0078125
40
0.015625
40
0.0234375
40
0.03125
40
0.03515625
40
0.0390625
40
0.04296875
40
0.046875
40
0.05078125
40
0.0546875
40
0.05859375
40
0.0625
40
0.06640625
40
0.0703125
40
0.07421875
40
0.078125
40
0.0859375
40
0.09375
40
0.09765625
40
0.1015625
40
0.109375
40
0.1171875
40
0.125
40
0.1328125
40
0.140625
40
0.1484375
40
0.15625
40
0.1640625
40
0.16796875
40
0.171875
40
0.1796875
40
0.1875
40
0.1953125
40
0.203125
40
0.2109375
40
0.21875
40
0.22265625
40
0.2265625
40
0.234375
40
0.23828125
40
0.2421875
40
0.24609375
40
0.25
40
0.25390625
40
0.2578125
40
0.26171875
40
0.265625
40
0.2734375
40
0.28125
40
0.2890625
40
0.296875
40
0.3125
40
0.328125
40
0.3359375
40
0.34375
40
0.3515625
40
0.359375
40
0.3671875
40
0.375
40
0.3828125
40
0.390625
40
0.3984375
40
0.40625
40
0.4140625
40
0.421875
40
0.4296875
40
0.4375
40
0.4453125
40
0.453125
40
0.4609375
40
0.46875
40
0.4765625
40
0.484375
40
0.5
40
0.515625
40
0.5234375
40
0.53125
40
0.5390625
40
0.546875
40
0.5546875
40
0.5625
40
0.5703125
40
0.578125
40
0.5859375
40
0.59375
40
0.6015625
40
0.609375
40
0.6171875
40
0.625
40
0.6328125
40
0.640625
40
0.6484375
40
0.65625
40
0.6640625
40
0.66796875
40
0.671875
40
0.67578125
40
0.6796875
40
0.681640625
40
0.68359375
40
0.685546875
40
0.6875
40
0.6884765625
40
0.689453125
40
0.69140625
40
0.6923828125
40
0.693359375
40
0.6943359375
40
0.6953125
40
0.697265625
40
0.69921875
40
0.7001953125
40
0.701171875
40
0.703125
40
0.70703125
40
0.7109375
40
0.712890625
40
0.71484375
40
0.71875
40
0.72265625
40
0.7265625
40
0.73046875
40
0.734375
40
0.7421875
40
0.75
40
0.7578125
40
0.765625
40
0.7734375
40
0.78125
40
0.796875
40
0.8125
40
0.828125
40
0.8359375
40
0.84375
40
0.859375
40
0.8671875
40
0.875
40
0.8828125
40
0.890625
40
0.89453125
40
0.8984375
40
0.90234375
40
0.90625
40
0.91015625
40
0.9140625
40
0.91796875
40
0.921875
40
0.92578125
40
0.9296875
40
0.93359375
40
0.9375
40
0.94140625
40
0.9453125
40
0.94921875
40
0.953125
40
0.95703125
40
0.9609375
40
0.96484375
40
0.966796875
40
0.96875
40
0.97265625
40
0.974609375
40
0.9765625
40
0.978515625
40
0.98046875
40
0.984375
40
0.98828125
40
0.9921875
40
0.99899663806324202
40
0.99899663806324202
40
0.99899663806324202
40
0.99899663806324202
10
5.0705954215387908e-15
20
98.751856036205766
30
0
10
0.68529054567882453
20
98.75185603620578
30
0
10
1.9060474190731445
20
98.668839303271639
30
0
10
3.4204202967283037
20
98.177136845103263
30
0
10
4.7517311832481575
20
97.18607864162955
30
0
10
5.7959696541324659
20
96.145030924765891
30
0
10
6.6434400355840015
20
95.310145355564785
30
0
10
7.2993071724875218
20
94.716776433734239
30
0
10
7.9828962272176964
20
94.176742115527361
30
0
10
8.6794884254838287
20
93.665546594743532
30
0
10
9.3774889916791935
20
93.165120859145446
30
0
10
10.06448913929724
20
92.65547416237375
30
0
10
10.728212126746826
20
92.117875900593816
30
0
10
11.356667043674964
20
91.530476633994141
30
0
10
11.93634692391328
20
90.88519443756843
30
0
10
12.4531439024826
20
90.189644273804902
30
0
10
12.8899833771786
20
89.447911580286444
30
0
10
13.364268815199189
20
88.406038618517925
30
0
10
13.785186885387571
20
87.02371333662343
30
0
10
14.042397435152697
20
85.583833757739626
30
0
10
14.191898355576953
20
84.428323095233708
30
0
10
14.311119085175008
20
83.274713103281584
30
0
10
14.406449972386302
20
81.834756130214416
30
0
10
14.451095632485407
20
80.110983972075303
30
0
10
14.441339284365526
20
78.391708236387259
30
0
10
14.393091603896117
20
76.677118879923654
30
0
10
14.320829387578884
20
74.968494053638153
30
0
10
14.245455133145075
20
73.261866317893904
30
0
10
14.194786234516068
20
71.547669657779494
30
0
10
14.195075514113674
20
70.105732443760687
30
0
10
14.234291567327517
20
68.93999891650877
30
0
10
14.303600010452943
20
67.763844108058976
30
0
10
14.461122067627217
20
66.287189778673948
30
0
10
14.814245574997233
20
64.557696303993822
30
0
10
15.381234047459248
20
62.922197094441863
30
0
10
16.213648779985849
20
61.433079287263901
30
0
10
17.356764775565516
20
60.140509852913411
30
0
10
18.50255035139088
20
59.232353371235732
30
0
10
19.498560456489869
20
58.611812557085763
30
0
10
20.534259415363888
20
58.061744065757459
30
0
10
21.615676225609533
20
57.629887640330423
30
0
10
22.729161701481004
20
57.369283226319055
30
0
10
23.576567346510011
20
57.274769392586677
30
0
10
24.432403090594921
20
57.274526157871492
30
0
10
25.292633241951687
20
57.352767350037169
30
0
10
26.153273348617855
20
57.495983519334573
30
0
10
27.010298636735275
20
57.68996901691807
30
0
10
27.859794380206864
20
57.921026267940654
30
0
10
28.976663184980499
20
58.258486711563364
30
0
10
30.342713489771924
20
58.731577310674652
30
0
10
31.93635951278198
20
59.382013963071579
30
0
10
33.486656313115432
20
60.113790153210005
30
0
10
35.497868543852626
20
61.199968663185118
30
0
10
37.921384186452954
20
62.739034591535685
30
0
10
40.283780737224745
20
64.391397916360347
30
0
10
42.171892031687825
20
65.706873188958568
30
0
10
43.618374644501699
20
66.641596721082948
30
0
10
45.125193921404055
20
67.477031905042082
30
0
10
46.726056205658281
20
68.163110730260357
30
0
10
48.399685298115969
20
68.687457844153073
30
0
10
50.119856643473817
20
69.041269134268518
30
0
10
51.861386918186334
20
69.214344241070634
30
0
10
53.599825296959345
20
69.198531491352838
30
0
10
55.306749729735465
20
68.97888071367521
30
0
10
56.979088012378973
20
68.582458316334751
30
0
10
58.624295892525893
20
68.053672039360762
30
0
10
60.247297310634266
20
67.432971600299936
30
0
10
61.853504096820373
20
66.760767649798566
30
0
10
63.448908329745713
20
66.081585128587662
30
0
10
65.030893499242026
20
65.390226292943822
30
0
10
66.595541874128969
20
64.674391679649261
30
0
10
68.139572807473684
20
63.924246464424009
30
0
10
69.658435290478394
20
63.12706549808329
30
0
10
71.15244279172471
20
62.280070720737932
30
0
10
73.127134760596022
20
61.111695368236632
30
0
10
75.587285841712628
20
59.618941682814601
30
0
10
78.108493326003156
20
58.204194733215935
30
0
10
80.076007753164888
20
57.00988253893523
30
0
10
81.504964994799337
20
56.054951162572863
30
0
10
82.864288020710703
20
55.011530682460346
30
0
10
84.136245440072059
20
53.857430640919063
30
0
10
85.342643308123655
20
52.624288328904775
30
0
10
86.501636893028561
20
51.338698667607652
30
0
10
87.633003729238254
20
50.029739581969707
30
0
10
88.753617294399021
20
48.721483650067405
30
0
10
89.864226998009471
20
47.409601474727374
30
0
10
90.967146393241606
20
46.092574217418935
30
0
10
92.064344452533959
20
44.768080232180438
30
0
10
93.157604327584778
20
43.43419854413068
30
0
10
94.249797033787587
20
42.08820830149827
30
0
10
95.338553560685483
20
40.730905312814365
30
0
10
96.416154231727091
20
39.366670577493636
30
0
10
97.476011448249892
20
37.999071849123766
30
0
10
98.511228030691441
20
36.632100943650805
30
0
10
99.51501304520086
20
35.268866673414138
30
0
10
100.31955230418387
20
34.141132614586937
30
0
10
100.94135382713937
20
33.22095398341969
30
0
10
101.39614746998689
20
32.515326824672222
30
0
10
101.83872940312681
20
31.788086365443633
30
0
10
102.19682978154157
20
31.158856690219228
30
0
10
102.4765514046196
20
30.638459231035391
30
0
10
102.68288716598447
20
30.238876926837577
30
0
10
102.88566440667644
20
29.829243059100211
30
0
10
103.05167978089324
20
29.478835857775216
30
0
10
103.18252043573672
20
29.192747819510167
30
0
10
103.31254810582743
20
28.902510309478807
30
0
10
103.41260642444168
20
28.616126379490812
30
0
10
103.42515028228996
20
28.353953616504196
30
0
10
103.37378970268061
20
28.175170079009426
30
0
10
103.26162565698834
20
28.015716603656227
30
0
10
103.04766092913106
20
27.826662324066934
30
0
10
102.68391699502519
20
27.632076008165683
30
0
10
102.25995127914109
20
27.485689473209728
30
0
10
101.92713161097777
20
27.3930461430562
30
0
10
101.60576916873862
20
27.315439898809728
30
0
10
101.06724660395275
20
27.216556994476733
30
0
10
100.35475395890765
20
27.165533982675409
30
0
10
99.681820529815454
20
27.194137485372217
30
0
10
99.146123739657639
20
27.240610770434678
30
0
10
98.604435347247318
20
27.294055414623433
30
0
10
97.915198676271757
20
27.371434074222197
30
0
10
97.073135765320558
20
27.480689487908762
30
0
10
96.219732752432208
20
27.60501832742969
30
0
10
95.358825062044858
20
27.743317519742448
30
0
10
94.206052733097977
20
27.944758093634388
30
0
10
92.765022715179114
20
28.225838227753187
30
0
10
91.068044173284747
20
28.59973591506046
30
0
10
89.399549282261916
20
29.018745635404709
30
0
10
87.753400700687422
20
29.492707527352394
30
0
10
86.122120294100583
20
30.031776990482442
30
0
10
83.970111571256211
20
30.846378954126536
30
0
10
81.350656768526889
20
32.051274822838977
30
0
10
78.40438111261119
20
33.832719141964553
30
0
10
76.046428572239876
20
35.477931115018009
30
0
10
74.174563134386219
20
36.815802881166547
30
0
10
72.297144017112885
20
38.141439845518839
30
0
10
70.398980774623439
20
39.430935582829434
30
0
10
68.465385485183219
20
40.669277846443237
30
0
10
66.994461276912119
20
41.570781064430591
30
0
10
65.495134138038949
20
42.430336005865755
30
0
10
64.196770634241602
20
43.045231394993507
30
0
10
63.114073424862276
20
43.439967609188557
30
0
10
62.278283027088705
20
43.678736662073248
30
0
10
61.426650518993796
20
43.855433337628746
30
0
10
60.565881217824341
20
43.964461730819977
30
0
10
59.702696745195603
20
44.001375855911384
30
0
10
58.844973568419974
20
43.957936685437211
30
0
10
57.993819622088452
20
43.846341033345311
30
0
10
57.146251481764509
20
43.691079186342179
30
0
10
56.300253633925664
20
43.513686356599095
30
0
10
55.453511641776544
20
43.336784158998888
30
0
10
54.603938850699208
20
43.181603672113262
30
0
10
53.748836400638766
20
43.073851717047106
30
0
10
52.888156648504577
20
43.019537440550842
30
0
10
52.02542356460107
20
42.998548515464094
30
0
10
51.163207418324049
20
42.996603177806293
30
0
10
50.305239876674214
20
42.995420035372973
30
0
10
49.450773968610939
20
42.989002689016935
30
0
10
48.593826414442198
20
42.985385331240181
30
0
10
47.873503603510756
20
42.989104944288911
30
0
10
47.29097917826752
20
42.99896184630402
30
0
10
46.70321415706983
20
43.01486602481183
30
0
10
46.117547731375311
20
43.014318594491037
30
0
10
45.554302981758354
20
42.945422707354687
30
0
10
45.148725119669464
20
42.84506570411024
30
0
10
44.762615134326751
20
42.689727043384835
30
0
10
44.26914290173859
20
42.422826655484755
30
0
10
43.686248499967128
20
41.995471320448132
30
0
10
43.019877094883526
20
41.396284747685968
30
0
10
42.203525332471045
20
40.619598713593057
30
0
10
41.594017742177016
20
40.100451485224198
30
0
10
41.183578983003422
20
39.846529730549889
30
0
0
ELLIPSE
5
103
100
AcDbEntity
8
0
100
AcDbEllipse
10
0
20
0
30
0
11
0
21
61.440000000000019
31
0.0
40
0.88061690475762933
41
2.3601242487176943
42
2.789881396430161
0
SPLINE
5
104
100
AcDbEntity
8
0
100
AcDbSpline
70
0
71
3
72
82
73
78
74
0
42
0.000000001
43
0.0000000001
44
0.0000000001
40
0.015490561497263612
40
0.015490561497263612
40
0.015490561497263612
40
0.015490561497263612
40
0.045639903255616468
40
0.061032808041816204
40
0.07642571282801594
40
0.09181861761421567
40
0.10721152240041541
40
0.12260442718661516
40
0.13799733197281489
40
0.15339023675901461
40
0.16878314154521434
40
0.1841760463314141
40
0.19187249872451395
40
0.19956895111761383
40
0.20726540351071371
40
0.21496185590381356
40
0.22265830829691344
40
0.23035476069001332
40
0.23805121308311317
40
0.24574766547621305
40
0.25344411786931292
40
0.26114057026241277
40
0.26883702265551263
40
0.27653347504861248
40
0.28422992744171238
40
0.29192637983481223
40
0.30731928462101199
40
0.32271218940721169
40
0.33810509419341145
40
0.35349799897961121
40
0.36889090376581091
40
0.38428380855201066
40
0.39967671333821042
40
0.41506961812441012
40
0.43046252291060988
40
0.44585542769680964
40
0.46124833248300934
40
0.46894478487610924
40
0.47664123726920909
40
0.48433768966230895
40
0.49203414205540885
40
0.4997305944485087
40
0.50742704684160855
40
0.51512349923470846
40
0.52281995162780825
40
0.53051640402090816
40
0.53821285641400807
40
0.54590930880710786
40
0.55360576120020777
40
0.56130221359330768
40
0.56899866598640747
40
0.57669511837950738
40
0.58439157077260728
40
0.59978447555880698
40
0.61517738034500669
40
0.6305702851312065
40
0.6459631899174062
40
0.6613560947036059
40
0.67674899948980571
40
0.69214190427600542
40
0.70753480906220512
40
0.72292771384840493
40
0.73832061863460463
40
0.75371352342080433
40
0.76910642820700403
40
0.78449933299320374
40
0.79989223777940355
40
0.81528514256560325
40
0.84607095213800276
40
0.86146385692420246
40
0.87685676171040217
40
0.89224966649660187
40
0.90764257128280157
40
0.92303547606900138
40
0.93842838085520108
40
0.95382128564140078
40
0.99777205436323102
40
0.99777205436323102
40
0.99777205436323102
40
0.99777205436323102
10
-18.639468256833492
20
-57.678922836544409
30
0
10
-19.289036493205177
20
-58.196310508992106
30
0
10
-20.064308572331019
20
-59.155619545176478
30
0
10
-20.827572516716181
20
-60.637020547528884
30
0
10
-21.302324506994982
20
-61.819320139191376
30
0
10
-21.71226553186132
20
-63.017472901650464
30
0
10
-22.051194953304154
20
-64.231142912208099
30
0
10
-22.310538350378767
20
-65.462466036035607
30
0
10
-22.48115745865579
20
-66.713445464772178
30
0
10
-22.580356374595219
20
-67.973714164063196
30
0
10
-22.626827005440916
20
-69.231522623852612
30
0
10
-22.637607673326023
20
-70.269830657539842
30
0
10
-22.646160259977993
20
-71.105175045888004
30
0
10
-22.656457967842965
20
-71.736492205737477
30
0
10
-22.675152502414008
20
-72.374758588758169
30
0
10
-22.704740574845307
20
-73.023861475846829
30
0
10
-22.76943367280882
20
-73.668371702068626
30
0
10
-22.897072906185713
20
-74.289805731182753
30
0
10
-23.113188712204217
20
-74.871086785356042
30
0
10
-23.448994030318126
20
-75.39250375919157
30
0
10
-23.878276871049341
20
-75.860068757505218
30
0
10
-24.366931714605403
20
-76.283520079660548
30
0
10
-24.880208610591765
20
-76.672162600293902
30
0
10
-25.394675726798734
20
-77.033187309742161
30
0
10
-25.91498315879905
20
-77.368134515291885
30
0
10
-26.616611572191772
20
-77.783223332572248
30
0
10
-27.511738315976846
20
-78.24867428629905
30
0
10
-28.622489548382596
20
-78.739331309378969
30
0
10
-29.780031021415496
20
-79.182259536560181
30
0
10
-30.984643029764225
20
-79.586377468265127
30
0
10
-32.22239555147484
20
-79.944279323263459
30
0
10
-33.481983734509619
20
-80.251753116932022
30
0
10
-34.751772360240231
20
-80.50351552015502
30
0
10
-36.018822506483318
20
-80.695374785179354
30
0
10
-37.276344896845551
20
-80.819495085211315
30
0
10
-38.530752814637957
20
-80.86044687613834
30
0
10
-39.576961362090941
20
-80.813467401392217
30
0
10
-40.416886047943514
20
-80.719982993061237
30
0
10
-41.048771906150108
20
-80.620087872406131
30
0
10
-41.683619817655995
20
-80.488748728994679
30
0
10
-42.320331515831981
20
-80.323613617133404
30
0
10
-42.943447521113654
20
-80.11760953811347
30
0
10
-43.538901119218849
20
-79.864147188197151
30
0
10
-44.092039481097004
20
-79.556346433081615
30
0
10
-44.589161471490186
20
-79.188006765753045
30
0
10
-45.013345294737007
20
-78.750500000606664
30
0
10
-45.362484215630033
20
-78.246413058581993
30
0
10
-45.650425243902923
20
-77.690417687921013
30
0
10
-45.887670226510537
20
-77.094641351795133
30
0
10
-46.085690751907215
20
-76.471986669336033
30
0
10
-46.255424605328983
20
-75.834799920905482
30
0
10
-46.40897504338546
20
-75.196877585983103
30
0
10
-46.602012224370824
20
-74.355778571813616
30
0
10
-46.820126560879601
20
-73.316535307964998
30
0
10
-47.049915578897334
20
-72.082633626395463
30
0
10
-47.252003150793236
20
-70.854287693719456
30
0
10
-47.430384442456244
20
-69.624544136524989
30
0
10
-47.590957412996254
20
-68.385141045447185
30
0
10
-47.731067118828037
20
-67.133102895358846
30
0
10
-47.835059473053782
20
-65.873461488090982
30
0
10
-47.889591474926981
20
-64.609723747953794
30
0
10
-47.881244326619438
20
-63.345842902130016
30
0
10
-47.794591332478504
20
-62.085511843833238
30
0
10
-47.62436330032844
20
-60.833167510451325
30
0
10
-47.375752157872824
20
-59.594098577062617
30
0
10
-47.05212821355299
20
-58.373090048184288
30
0
10
-46.655956707245991
20
-57.176254835294159
30
0
10
-46.045296403075852
20
-55.61116566076717
30
0
10
-45.339730850102519
20
-54.082800392498804
30
0
10
-44.598684285366772
20
-52.573636950159255
30
0
10
-44.0275580428737
20
-51.451133547288862
30
0
10
-43.43296382309606
20
-50.341366187965413
30
0
10
-42.809235563438534
20
-49.246865290919892
30
0
10
-42.150057864612471
20
-48.170359851075347
30
0
10
-41.449252075575835
20
-47.114621011629254
30
0
10
-40.226987465666959
20
-45.471300402786596
30
0
10
-39.090119120182834
20
-44.314669360354756
30
0
10
-38.107444907190597
20
-43.615031686175705
30
0
0
LINE
5
105
100
AcDbEntity
8
0
100
AcDbLine
10
-0.80825669900380381
20
-84.176320225817449
30
0
11
-3.8743643874056124
21
-61.282273924239178
31
0
0
ARC
5
106
100
AcDbEntity
8
0
100
AcDbCircle
10
-7.1054273576010032e-17
20
-84.068073651735546
30
0
40
0.81547299911461979
210
0
220
0
230
1
100
AcDbArc
50
187.62800405595758
51
352.3719959440424
0
LINE
5
107
100
AcDbEntity
8
0
100
AcDbLine
10
0.80825669900380204
20
-84.176320225817449
30
0
11
3.8743643874056124
21
-61.282273924239178
31
0
0
ELLIPSE
5
108
100
AcDbEntity
8
0
100
AcDbEllipse
10
0
20
0
30
0
11
0
21
61.440000000000019
31
0.0
40
0.88061690475762933
41
3.069923199631245
42
3.2132621075483412
0
ELLIPSE
5
109
100
AcDbEntity
8
0
100
AcDbEllipse
10
0
20
0
30
0
11
0
21
61.440000000000019
31
0.0
40
0.88061690475762933
41
3.4933039107494244
42
3.9230610584618915
0
SPLINE
5
110
100
AcDbEntity
8
0
100
AcDbSpline
70
0
71
3
72
82
73
78
74
0
42
0.000000001
43
0.0000000001
44
0.0000000001
40
0.015490561497263761
40
0.015490561497263761
40
0.015490561497263761
40
0.015490561497263761
40
0.045639903255616468
40
0.061032808041816204
40
0.07642571282801594
40
0.09181861761421567
40
0.10721152240041541
40
0.12260442718661516
40
0.13799733197281489
40
0.15339023675901461
40
0.16878314154521434
40
0.1841760463314141
40
0.19187249872451395
40
0.19956895111761383
40
0.20726540351071371
40
0.21496185590381356
40
0.22265830829691344
40
0.23035476069001332
40
0.23805121308311317
40
0.24574766547621305
40
0.25344411786931292
40
0.26114057026241277
40
0.26883702265551263
40
0.27653347504861248
40
0.28422992744171238
40
0.29192637983481223
40
0.30731928462101199
40
0.32271218940721169
40
0.33810509419341145
40
0.35349799897961121
40
0.36889090376581091
40
0.38428380855201066
40
0.39967671333821042
40
0.41506961812441012
40
0.43046252291060988
40
0.44585542769680964
40
0.46124833248300934
40
0.46894478487610924
40
0.47664123726920909
40
0.48433768966230895
40
0.49203414205540885
40
0.4997305944485087
40
0.50742704684160855
40
0.51512349923470846
40
0.52281995162780825
40
0.53051640402090816
40
0.53821285641400807
40
0.54590930880710786
40
0.55360576120020777
40
0.56130221359330768
40
0.56899866598640747
40
0.57669511837950738
40
0.58439157077260728
40
0.59978447555880698
40
0.61517738034500669
40
0.6305702851312065
40
0.6459631899174062
40
0.6613560947036059
40
0.67674899948980571
40
0.69214190427600542
40
0.70753480906220512
40
0.72292771384840493
40
0.73832061863460463
40
0.75371352342080433
40
0.76910642820700403
40
0.78449933299320374
40
0.79989223777940355
40
0.81528514256560325
40
0.84607095213800276
40
0.86146385692420246
40
0.87685676171040217
40
0.89224966649660187
40
0.90764257128280157
40
0.92303547606900138
40
0.93842838085520108
40
0.95382128564140078
40
0.9977720543632308
40
0.9977720543632308
40
0.9977720543632308
40
0.9977720543632308
10
18.639468256833471
20
-57.678922836544409
30
0
10
19.289036493205156
20
-58.196310508992127
30
0
10
20.064308572330983
20
-59.155619545176457
30
0
10
20.827572516716156
20
-60.637020547528884
30
0
10
21.302324506994964
20
-61.819320139191376
30
0
10
21.712265531861274
20
-63.017472901650471
30
0
10
22.051194953304126
20
-64.231142912208099
30
0
10
22.310538350378735
20
-65.462466036035607
30
0
10
22.481157458655765
20
-66.713445464772178
30
0
10
22.580356374595205
20
-67.973714164063196
30
0
10
22.626827005440887
20
-69.231522623852612
30
0
10
22.637607673325995
20
-70.269830657539842
30
0
10
22.646160259977961
20
-71.105175045888004
30
0
10
22.656457967842943
20
-71.736492205737477
30
0
10
22.675152502413969
20
-72.374758588758169
30
0
10
22.704740574845275
20
-73.023861475846829
30
0
10
22.769433672808784
20
-73.668371702068626
30
0
10
22.897072906185684
20
-74.289805731182753
30
0
10
23.113188712204185
20
-74.871086785356042
30
0
10
23.44899403031809
20
-75.392503759191555
30
0
10
23.878276871049302
20
-75.860068757505246
30
0
10
24.366931714605371
20
-76.283520079660548
30
0
10
24.880208610591723
20
-76.672162600293902
30
0
10
25.394675726798699
20
-77.033187309742203
30
0
10
25.914983158799014
20
-77.368134515291885
30
0
10
26.616611572191747
20
-77.783223332572248
30
0
10
27.511738315976821
20
-78.248674286299092
30
0
10
28.622489548382561
20
-78.739331309378969
30
0
10
29.780031021415461
20
-79.182259536560181
30
0
10
30.984643029764172
20
-79.586377468265127
30
0
10
32.222395551474811
20
-79.944279323263459
30
0
10
33.481983734509591
20
-80.251753116932022
30
0
10
34.751772360240174
20
-80.50351552015502
30
0
10
36.018822506483296
20
-80.695374785179368
30
0
10
37.276344896845508
20
-80.819495085211329
30
0
10
38.530752814637935
20
-80.860446876138369
30
0
10
39.576961362090913
20
-80.813467401392217
30
0
10
40.416886047943493
20
-80.719982993061251
30
0
10
41.048771906150073
20
-80.620087872406145
30
0
10
41.68361981765598
20
-80.488748728994722
30
0
10
42.320331515831946
20
-80.323613617133418
30
0
10
42.943447521113605
20
-80.117609538113527
30
0
10
43.538901119218835
20
-79.86414718819718
30
0
10
44.092039481096982
20
-79.556346433081671
30
0
10
44.589161471490158
20
-79.188006765753045
30
0
10
45.013345294736979
20
-78.750500000606664
30
0
10
45.362484215630019
20
-78.24641305858205
30
0
10
45.650425243902887
20
-77.690417687920984
30
0
10
45.887670226510494
20
-77.094641351795175
30
0
10
46.085690751907215
20
-76.471986669336033
30
0
10
46.255424605328926
20
-75.834799920905525
30
0
10
46.408975043385439
20
-75.196877585983103
30
0
10
46.60201222437081
20
-74.355778571813616
30
0
10
46.820126560879572
20
-73.316535307964998
30
0
10
47.049915578897334
20
-72.082633626395506
30
0
10
47.252003150793193
20
-70.854287693719513
30
0
10
47.430384442456244
20
-69.624544136525003
30
0
10
47.590957412996218
20
-68.385141045447256
30
0
10
47.731067118828008
20
-67.133102895358846
30
0
10
47.835059473053747
20
-65.873461488091024
30
0
10
47.889591474926945
20
-64.609723747953794
30
0
10
47.881244326619388
20
-63.345842902130052
30
0
10
47.794591332478468
20
-62.085511843833245
30
0
10
47.624363300328405
20
-60.833167510451325
30
0
10
47.375752157872768
20
-59.594098577062624
30
0
10
47.052128213552955
20
-58.373090048184295
30
0
10
46.655956707245963
20
-57.176254835294174
30
0
10
46.045296403075824
20
-55.611165660767199
30
0
10
45.339730850102491
20
-54.082800392498804
30
0
10
44.598684285366723
20
-52.57363695015929
30
0
10
44.027558042873657
20
-51.451133547288883
30
0
10
43.432963823096024
20
-50.34136618796542
30
0
10
42.809235563438499
20
-49.246865290919892
30
0
10
42.150057864612442
20
-48.170359851075368
30
0
10
41.449252075575799
20
-47.114621011629239
30
0
10
40.226987465666895
20
-45.471300402786596
30
0
10
39.090119120182791
20
-44.314669360354777
30
0
10
38.107444907190583
20
-43.615031686175712
30
0
0
SPLINE
5
111
100
AcDbEntity
8
0
100
AcDbSpline
70
0
71
3
72
8
73
4
74
0
42
0.000000001
43
0.0000000001
44
0.0000000001
40
0.9989966380632338
40
0.9989966380632338
40
0.9989966380632338
40
0.9989966380632338
40
1
40
1
40
1
40
1
10
-41.183578983004907
20
39.846529730550799
30
0
10
-41.123098695411457
20
39.809113038277715
30
0
10
-41.062116290134234
20
39.773345979570536
30
0
10
-41.000572310834144
20
39.739406980718506
30
0
0
LWPOLYLINE
5
112
100
AcDbEntity
8
0
100
AcDbPolyline
90
120
70
1
43
0.0
10
29.621859754434603
20
-1.1369018221820728
42
0.70022610151037901
10
30.582645181796629
20
-1.1900437276262754
42
0.28918063140617356
10
23.154387934546282
20
45.221063315919864
42
0.10454364771848872
10
21.456580197619921
20
46.48715054962075
42
0.064625529095166376
10
8.8781279780218298
20
50.424387389495038
42
0.82802331297029719
10
8.165779569116717
20
48.542641320622138
42
-0.27115646477318173
10
29.312091213383177
20
9.0618440650126661
42
-0.7429961363347557
10
28.363358437155512
20
8.8145955770374016
42
0.47844588764055335
10
4.6993944090559463
20
11.921748189989053
42
0.05738998756169774
10
1.8665199930608534
20
12.677874065981165
42
-0.42310638962852981
10
26.221733965771449
20
13.826344017598473
42
0.70022610151038123
10
27.080369506174975
20
14.260714491159288
42
0.28918063140617356
10
-2.5582434975622959
20
50.739783585004332
42
0.10454364771848933
10
-4.6616317453327465
20
50.987343424333332
42
0.064625529095166376
10
-17.523509327730626
20
48.107864438581529
42
0.82802331297029674
10
-17.199548111751476
20
46.122050335013554
42
-0.27115646477318189
10
20.854093596330408
20
22.503832772125541
42
-0.74299613633476558
10
20.156091154701947
20
21.815342912377847
42
0.47844588764055329
10
-1.8910791543493544
20
12.674233994579669
42
0.057389987561701536
10
-4.7224833023283512
20
11.912621003650017
42
-0.42310638962852987
10
15.795515736836085
20
25.084832143589018
42
0.70022610151037956
10
16.321930690637295
20
25.890325778548316
42
0.28918063140617351
10
-27.585395650457517
20
42.662819818357235
42
0.10454364771848926
10
-29.53076322671286
20
41.825518804287711
42
0.064625529095166154
10
-39.229736460559096
20
32.90087806176426
42
0.82802331297030085
10
-37.956270765896264
20
31.343093208870538
42
-0.27115646477318189
10
6.8082584412577294
20
29.915937661342728
42
-0.74299613633475525
10
6.5480155247777532
20
28.970686731738994
42
0.47844588764055329
10
-7.9748395855235801
20
10.03066903563963
42
0.057389987561701661
10
-10.046101010589199
20
7.9553907636527939
42
-0.42310638962853009
10
1.1369018221823861
20
29.621859754434595
42
0.70022610151037845
10
1.1900437276265974
20
30.582645181796622
42
0.28918063140617362
10
-45.221063315919629
20
23.154387934546754
42
0.10454364771848822
10
-46.487150549620544
20
21.456580197620415
42
0.064625529095166265
10
-50.424387389494953
20
8.8781279780223592
42
0.82802331297029819
10
-48.54264132062206
20
8.1657795691172055
42
-0.27115646477318189
10
-9.0618440650123606
20
29.312091213383265
42
-0.7429961363347628
10
-8.8145955770371085
20
28.363358437155604
42
0.47844588764055312
10
-11.921748189989003
20
4.6993944090560777
42
0.057389987561701661
10
-12.67787406598117
20
1.8665199930607934
42
-0.42310638962852998
10
-13.826344017598565
20
26.221733965771406
42
0.70022610151038278
10
-14.26071449115938
20
27.080369506174932
42
0.28918063140617356
10
-50.739783585004325
20
-2.558243497562485
42
0.10454364771848879
10
-50.987343424333318
20
-4.6616317453329188
42
0.064625529095165821
10
-48.107864438581494
20
-17.523509327730757
42
0.82802331297031673
10
-46.122050335013476
20
-17.199548111751636
42
-0.27115646477318189
10
-22.503832772125605
20
20.854093596330337
42
-0.74299613633475636
10
-21.815342912377918
20
20.156091154701873
42
0.47844588764055324
10
-12.67423399457966
20
-1.8910791543493943
42
0.057389987561701536
10
-11.912621003650003
20
-4.7224833023283903
42
-0.42310638962852987
10
-25.084832143589075
20
15.795515736836004
42
0.70022610151038489
10
-25.890325778548387
20
16.321930690637224
42
0.28918063140617334
10
-42.66281981835715
20
-27.585395650457642
42
0.1045436477184903
10
-41.825518804287618
20
-29.530763226713006
42
0.064625529095166265
10
-32.900878061764132
20
-39.229736460559209
42
0.82802331297031084
10
-31.343093208870414
20
-37.956270765896384
42
-0.27115646477318189
10
-29.915937661342756
20
6.8082584412576246
42
-0.74299613633475226
10
-28.970686731739022
20
6.5480155247776617
42
0.47844588764055346
10
-10.03066903563961
20
-7.9748395855236085
42
0.057389987561701661
10
-7.9553907636527761
20
-10.046101010589224
42
-0.4231063896285297
10
-29.621859754434595
20
1.1369018221822764
42
0.70022610151038189
10
-30.582645181796625
20
1.1900437276264952
42
0.28918063140617345
10
-23.154387934546605
20
-45.221063315919693
42
0.10454364771848967
10
-21.456580197620248
20
-46.487150549620615
42
0.064625529095166043
10
-8.8781279780222029
20
-50.424387389494981
42
0.82802331297030585
10
-8.1657795691170492
20
-48.54264132062211
42
-0.27115646477318189
10
-29.312091213383248
20
-9.0618440650124636
42
-0.74299613633476003
10
-28.363358437155579
20
-8.8145955770372062
42
0.47844588764055329
10
-4.6993944090560316
20
-11.921748189989021
42
0.057389987561699697
10
-1.8665199930608556
20
-12.677874065981168
42
-0.4231063896285297
10
-26.221733965771449
20
-13.826344017598473
42
0.70022610151038123
10
-27.080369506174975
20
-14.260714491159288
42
0.28918063140617356
10
2.558243497562303
20
-50.739783585004332
42
0.10454364771848901
10
4.6616317453327429
20
-50.987343424333325
42
0.064625529095165821
10
17.523509327730601
20
-48.107864438581551
42
0.82802331297030984
10
17.199548111751476
20
-46.122050335013554
42
-0.27115646477318189
10
-20.854093596330415
20
-22.503832772125541
42
-0.74299613633476402
10
-20.156091154701947
20
-21.815342912377847
42
0.47844588764055324
10
1.8910791543493533
20
-12.674233994579671
42
0.057389987561703375
10
4.7224833023284347
20
-11.912621003649985
42
-0.42310638962852987
10
-15.795515736835913
20
-25.084832143589132
42
0.7002261015103779
10
-16.321930690637135
20
-25.890325778548437
42
0.28918063140617356
10
27.585395650457833
20
-42.662819818357036
42
0.10454364771848849
10
29.530763226713152
20
-41.825518804287505
42
0.064625529095166154
10
39.229736460559316
20
-32.900878061764004
42
0.82802331297030995
10
37.956270765896477
20
-31.343093208870258
42
-0.27115646477318189
10
-6.8082584412575118
20
-29.915937661342774
42
-0.74299613633475825
10
-6.5480155247775595
20
-28.970686731739043
42
0.47844588764055362
10
7.974839585523644
20
-10.030669035639576
42
0.057389987561701904
10
10.046101010589247
20
-7.9553907636527255
42
-0.42310638962852998
10
-1.1369018221821783
20
-29.621859754434603
42
0.70022610151037945
10
-1.1900437276263798
20
-30.582645181796622
42
0.28918063140617356
10
45.221063315919793
20
-23.154387934546445
42
0.10454364771848886
10
46.487150549620686
20
-21.456580197620081
42
0.064625529095166043
10
50.42438738949501
20
-8.8781279780220288
42
0.82802331297030918
10
48.542641320622124
20
-8.1657795691168715
42
-0.27115646477318189
10
9.0618440650125649
20
-29.312091213383201
42
-0.74299613633475303
10
8.8145955770372968
20
-28.363358437155561
42
0.47844588764055362
10
11.921748189989037
20
-4.6993944090559889
42
0.057389987561701661
10
12.677874065981182
20
-1.8665199930607135
42
-0.42310638962852987
10
13.826344017598748
20
-26.221733965771307
42
0.70022610151037956
10
14.26071449115957
20
-27.080369506174833
42
0.28918063140617339
10
50.739783585004297
20
2.5582434975628034
42
0.10454364771849058
10
50.987343424333275
20
4.6616317453332785
42
0.064625529095166154
10
48.107864438581352
20
17.523509327731134
42
0.82802331297029486
10
46.122050335013384
20
17.199548111751955
42
-0.27115646477318189
10
22.503832772125747
20
-20.854093596330181
42
-0.7429961363347618
10
21.81534291237806
20
-20.156091154701713
42
0.47844588764055307
10
12.674233994579653
20
1.8910791543494863
42
0.057389987561701411
10
11.912621003649967
20
4.7224833023284702
42
-0.42310638962852987
10
25.084832143589182
20
-15.795515736835821
42
0.70022610151038622
10
25.890325778548497
20
-16.321930690637032
42
0.28918063140617356
10
42.662819818356937
20
27.585395650457979
42
0.10454364771848858
10
41.825518804287398
20
29.530763226713297
42
0.064625529095166154
10
32.900878061763848
20
39.229736460559451
42
0.82802331297029674
10
31.343093208870137
20
37.956270765896598
42
-0.27115646477318189
10
29.915937661342781
20
-6.8082584412574088
42
-0.74299613633475703
10
28.970686731739068
20
-6.5480155247774485
42
0.47844588764055329
10
10.03066903563955
20
7.9748395855236867
42
0.057389987561701536
10
7.9553907636526944
20
10.046101010589275
42
-0.42310638962852992
0
SPLINE
5
113
100
AcDbEntity
8
0
100
AcDbSpline
70
0
71
3
72
14
73
10
74
0
42
0.000000001
43
0.0000000001
44
0.0000000001
40
9.999999707256066e-07
40
9.999999707256066e-07
40
9.999999707256066e-07
40
9.999999707256066e-07
40
4.2965870770395158
40
4.2965870770395158
40
8.7245669924572589
40
8.7245669924572589
40
13.171500858855442
40
13.171500858855442
40
17.512719907954086
40
17.512719907954086
40
17.512719907954086
40
17.512719907954086
10
-37.956912995258193
20
-43.509853785766779
30
0
10
-42.793860837371021
20
-37.998548918241838
30
0
10
-46.571119006558362
20
-31.593871583038119
30
0
10
-51.931889083419556
20
-17.664944911044877
30
0
10
-53.435764251315049
20
-10.137729766453994
30
0
10
-53.991498440798232
20
5.0402389211716834
30
0
10
-53.032277291363812
20
12.676177082839244
30
0
10
-48.70956760546256
20
27.063448217408922
30
0
10
-45.413963835623306
20
33.79138441261545
30
0
10
-41.00040416285907
20
39.739282208715515
30
0
0
SPLINE
5
114
100
AcDbEntity
8
0
100
AcDbSpline
70
0
71
3
72
10
73
6
74
0
42
0.000000001
43
0.0000000001
44
0.0000000001
40
5.1255581450050098e-05
40
5.1255581450050098e-05
40
5.1255581450050098e-05
40
5.1255581450050098e-05
40
1.4811847178524093
40
1.4811847178524093
40
2.9728466915793139
40
2.9728466915793139
40
2.9728466915793139
40
2.9728466915793139
10
-3.8746680277463619
20
-61.280006697671183
30
0
10
-6.3938831133435015
20
-61.071844308015187
30
0
10
-8.8900990509064464
20
-60.662328299124908
30
0
10
-13.823981621839629
20
-59.44436007941075
30
0
10
-16.247965544451645
20
-58.636359381929601
30
0
10
-18.598109688455363
20
-57.646224194698632
30
0
0
SPLINE
5
115
100
AcDbEntity
8
0
100
AcDbSpline
70
0
71
3
72
10
73
6
74
0
42
0.000000001
43
0.0000000001
44
0.0000000001
40
1.0486376781351715e-05
40
1.0486376781351715e-05
40
1.0486376781351715e-05
40
1.0486376781351715e-05
40
1.4942712096721646
40
1.4942712096721646
40
2.9779850789079965
40
2.9779850789079965
40
2.9779850789079965
40
2.9779850789079965
10
18.598109688455324
20
-57.646224194698654
30
0
10
16.247965544451549
20
-58.63635938192963
30
0
10
13.823981621839611
20
-59.444360079410728
30
0
10
8.890099050906187
20
-60.662328299124965
30
0
10
6.3938831133433895
20
-61.071844308015201
30
0
10
3.8746680277463263
20
-61.280006697671197
30
0
0
SPLINE
5
116
100
AcDbEntity
8
0
100
AcDbSpline
70
0
71
3
72
14
73
10
74
0
42
0.000000001
43
0.0000000001
44
0.0000000001
40
2.1447649779442698e-05
40
2.1447649779442698e-05
40
2.1447649779442698e-05
40
2.1447649779442698e-05
40
4.3397976332891179
40
4.3397976332891179
40
8.7852535004642149
40
8.7852535004642149
40
13.211761716262918
40
13.211761716262918
40
17.506919764220907
40
17.506919764220907
40
17.506919764220907
40
17.506919764220907
10
41.000404162859063
20
39.739282208715501
30
0
10
45.413963835623427
20
33.79138441261528
30
0
10
48.709567605462702
20
27.063448217408421
30
0
10
53.032277291363698
20
12.676177082839487
30
0
10
53.991498440798331
20
5.0402389211725405
30
0
10
53.435764251314993
20
-10.137729766454068
30
0
10
51.931889083419527
20
-17.664944911044987
30
0
10
46.57111900655817
20
-31.593871583038649
30
0
10
42.793860837370744
20
-37.998548918242101
30
0
10
37.956912995258214
20
-43.509853785766765
30
0
0
LINE
5
117
100
AcDbEntity
8
0
100
AcDbLine
10
-3.8743643874056124
20
-61.282273924239178
30
0
11
-3.874639800387643
21
-61.280217467583562
31
0
0
ELLIPSE
5
118
100
AcDbEntity
8
0
100
AcDbEllipse
10
0
20
0
30
0
11
0
21
61.440000000000019
31
0.0
40
0.88061690475762933
41
5.418058736526377
42
7.1483118778327945
0
SPLINE
5
119
100
AcDbEntity
8
0
100
AcDbSpline
70
0
71
3
72
8
73
4
74
0
42
0.000000001
43
0.0000000001
44
0.0000000001
40
0.99899663806323391
40
0.99899663806323391
40
0.99899663806323391
40
0.99899663806323391
40
1
40
1
40
1
40
1
10
41.183578983004907
20
39.846529730550792
30
0
10
41.123098695411471
20
39.809113038277708
30
0
10
41.062116290134256
20
39.773345979570536
30
0
10
41.00057231083418
20
39.739406980718513
30
0
0
SPLINE
5
120
100
AcDbEntity
8
0
100
AcDbSpline
70
0
71
3
72
8
73
4
74
0
42
0.000000001
43
0.0000000001
44
0.0000000001
40
0.99777205436285521
40
0.99777205436285521
40
0.99777205436285521
40
0.99777205436285521
40
1
40
1
40
1
40
1
10
38.107444907215779
20
-43.615031686193653
30
0
10
38.057631336503931
20
-43.579565760361035
30
0
10
38.007456231261138
20
-43.544503219580434
30
0
10
37.956913149806283
20
-43.509853921404542
30
0
0
ELLIPSE
5
121
100
AcDbEntity
8
0
100
AcDbEllipse
10
0
20
0
30
0
11
0
21
61.440000000000019
31
0.0
40
0.88061690475762933
41
3.4933039107494244
42
3.9230610584618915
0
SPLINE
5
122
100
AcDbEntity
8
0
100
AcDbSpline
70
0
71
3
72
8
73
4
74
0
42
0.000000001
43
0.0000000001
44
0.0000000001
40
0.014854093683217003
40
0.014854093683217003
40
0.014854093683217003
40
0.014854093683217003
40
0.015490561497263734
40
0.015490561497263734
40
0.015490561497263734
40
0.015490561497263734
10
18.598147409114404
20
-57.646313726903138
30
0
10
18.611982073809482
20
-57.657130652736875
30
0
10
18.625755543674043
20
-57.668000521770956
30
0
10
18.639468256833464
20
-57.678922836544416
30
0
0
LINE
5
123
100
AcDbEntity
8
0
100
AcDbLine
10
3.8743643874056124
20
-61.282273924239178
30
0
11
3.8746395362143602
21
-61.280219440115516
31
0
0
ELLIPSE
5
124
100
AcDbEntity
8
0
100
AcDbEllipse
10
0
20
0
30
0
11
0
21
61.440000000000019
31
0.0
40
0.88061690475762933
41
3.069923199631245
42
3.2132621075483412
0
SPLINE
5
125
100
AcDbEntity
8
0
100
AcDbSpline
70
0
71
3
72
8
73
4
74
0
42
0.000000001
43
0.0000000001
44
0.0000000001
40
0.014854093683217003
40
0.014854093683217003
40
0.014854093683217003
40
0.014854093683217003
40
0.015490561497263586
40
0.015490561497263586
40
0.015490561497263586
40
0.015490561497263586
10
-18.598147409114432
20
-57.646313726903138
30
0
10
-18.611982073809511
20
-57.657130652736868
30
0
10
-18.625755543674064
20
-57.668000521770956
30
0
10
-18.639468256833482
20
-57.678922836544409
30
0
0
ELLIPSE
5
126
100
AcDbEntity
8
0
100
AcDbEllipse
10
0
20
0
30
0
11
0
21
61.440000000000019
31
0.0
40
0.88061690475762933
41
2.3601242487176943
42
2.789881396430161
0
SPLINE
5
127
100
AcDbEntity
8
0
100
AcDbSpline
70
0
71
3
72
8
73
4
74
0
42
0.000000001
43
0.0000000001
44
0.0000000001
40
0.99777205436285543
40
0.99777205436285543
40
0.99777205436285543
40
0.99777205436285543
40
1
40
1
40
1
40
1
10
-38.107444907215793
20
-43.615031686193639
30
0
10
-38.057631336503938
20
-43.579565760361014
30
0
10
-38.007456231261159
20
-43.544503219580413
30
0
10
-37.956913149806311
20
-43.509853921404527
30
0
0
LINE
5
128
100
AcDbEntity
8
0
100
AcDbLine
10
-38.42555466919174
20
63.108857229200908
30
0
11
-25.521299505289146
21
54.17532611017235
31
0
0
LINE
5
129
100
AcDbEntity
8
0
100
AcDbLine
10
38.42555466919174
20
63.108857229200908
30
0
11
25.52129950528915
21
54.17532611017235
31
0
0
ENDSEC
0
SECTION
2
OBJECTS
0
DICTIONARY
5
C
100
AcDbDictionary
3
ACAD_GROUP
350
D
3
ACAD_MLINESTYLE
350
17
0
DICTIONARY
5
D
100
AcDbDictionary
0
DICTIONARY
5
1A
330
C
100
AcDbDictionary
0
DICTIONARY
5
17
100
AcDbDictionary
0
ENDSEC
0
EOF
