0
SECTION
2
HEADER
9
$INSUNITS
70
4
9
$ACADVER
1
AC1014
9
$HANDSEED
5
FFFF
0
ENDSEC
0
SECTION
2
TABLES
0
TABLE
2
VPORT
5
8
100
AcDbSymbolTable
0
ENDTAB
0
TABLE
2
LTYPE
5
5
100
AcDbSymbolTable
0
LTYPE
5
14
100
AcDbSymbolTableRecord
100
AcDbLinetypeTableRecord
2
BYBLOCK
70
0
0
LTYPE
5
15
100
AcDbSymbolTableRecord
100
AcDbLinetypeTableRecord
2
BYLAYER
70
0
0
LTYPE
5
16
100
AcDbSymbolTableRecord
100
AcDbLinetypeTableRecord
2
DASHED
70
0
3
Dashed __ __ __ __ __ __ __ __ __ __ __ __ __ _
72
65
73
2
40
0.75
49
0.5
74
0
49
-0.25
74
0
0
ENDTAB
0
TABLE
2
LAYER
5
2
100
AcDbSymbolTable
70
3
0
LAYER
5
50
100
AcDbSymbolTableRecord
100
AcDbLayerTableRecord
2
1
70
0
62
7
6
DASHED
0
LAYER
5
51
100
AcDbSymbolTableRecord
100
AcDbLayerTableRecord
2
0
70
0
62
7
6
CONTINUOUS
0
ENDTAB
0
TABLE
2
STYLE
5
3
100
AcDbSymbolTable
70
1
0
STYLE
5
11
100
AcDbSymbolTableRecord
100
AcDbTextStyleTableRecord
2
STANDARD
70
0
0
ENDTAB
0
TABLE
2
VIEW
5
6
100
AcDbSymbolTable
70
0
0
ENDTAB
0
TABLE
2
UCS
5
7
100
AcDbSymbolTable
70
0
0
ENDTAB
0
TABLE
2
APPID
5
9
100
AcDbSymbolTable
70
2
0
APPID
5
12
100
AcDbSymbolTableRecord
100
AcDbRegAppTableRecord
2
ACAD
70
0
0
ENDTAB
0
TABLE
2
DIMSTYLE
5
A
100
AcDbSymbolTable
70
1
0
ENDTAB
0
TABLE
2
BLOCK_RECORD
5
1
100
AcDbSymbolTable
70
1
0
BLOCK_RECORD
5
1F
100
AcDbSymbolTableRecord
100
AcDbBlockTableRecord
2
*MODEL_SPACE
0
BLOCK_RECORD
5
1B
100
AcDbSymbolTableRecord
100
AcDbBlockTableRecord
2
*PAPER_SPACE
0
ENDTAB
0
ENDSEC
0
SECTION
2
BLOCKS
0
BLOCK
5
20
100
AcDbEntity
100
AcDbBlockBegin
2
*MODEL_SPACE
0
ENDBLK
5
21
100
AcDbEntity
100
AcDbBlockEnd
0
BLOCK
5
1C
100
AcDbEntity
100
AcDbBlockBegin
2
*PAPER_SPACE
0
ENDBLK
5
1D
100
AcDbEntity
100
AcDbBlockEnd
0
ENDSEC
0
SECTION
2
ENTITIES
0
CIRCLE
5
100
100
AcDbEntity
8
0
100
AcDbCircle
10
150
20
0.0058695518936824342
30
0
40
2.5
210
0
220
0
230
1
0
LWPOLYLINE
5
101
100
AcDbEntity
8
0
100
AcDbPolyline
90
32
70
1
43
0.0
10
155.00000230967999
20
35.000000521540642
10
155.00000230967999
20
24.500766508263894
42
-0.095924854579943042
10
163.7817781506501
20
20.864023617061189
10
171.20639935310885
20
28.288644819519924
10
178.28012284949068
20
21.214921323138096
10
170.85604328143825
20
13.790841755085667
42
-0.095924854579942806
10
174.49413096964696
20
5.0096229472741349
10
184.99413096964699
20
5.0096229472741172
10
184.99413096964696
20
-4.9941327577863071
10
174.49489695637024
20
-4.9941327577863168
42
-0.095924854579942806
10
170.85815406516753
20
-13.775908598756388
10
178.28277526762628
20
-21.200529801215158
10
171.20905177124442
20
-28.274253297596967
10
163.78497220319196
20
-20.850173729544544
42
-0.095924854579942695
10
155.00375339538044
20
-24.488261417753282
10
155.00375339538044
20
-34.988261417753286
10
144.99999769032001
20
-34.988261417753279
10
144.99999769032001
20
-24.489027404476538
42
-0.095924854579942695
10
136.21822184934993
20
-20.852284513273851
10
128.79360064689115
20
-28.276905715732575
10
121.71987715050933
20
-21.20318221935074
10
129.14395671856175
20
-13.779102651298311
42
-0.095924854579942806
10
125.50586903035303
20
-4.9978838434867789
10
115.00586903035301
20
-4.9978838434867612
10
115.00586903035304
20
5.005871861573663
10
125.50510304362979
20
5.0058718615736577
42
-0.095924854579942917
10
129.14184593483247
20
13.787647702543744
10
121.71722473237374
20
21.212268905002496
10
128.79094822875558
20
28.285992401384323
10
136.21502779680802
20
20.8619128333319
42
-0.095924854579942806
10
144.99624660461956
20
24.500000521540649
10
144.99624660461956
20
35.000000521540649
0
ENDSEC
0
SECTION
2
OBJECTS
0
DICTIONARY
5
C
100
AcDbDictionary
3
ACAD_GROUP
350
D
3
ACAD_MLINESTYLE
350
17
0
DICTIONARY
5
D
100
AcDbDictionary
0
DICTIONARY
5
1A
330
C
100
AcDbDictionary
0
DICTIONARY
5
17
100
AcDbDictionary
0
ENDSEC
0
EOF
