0
SECTION
2
HEADER
9
$INSUNITS
70
4
9
$ACADVER
1
AC1014
9
$HANDSEED
5
FFFF
0
ENDSEC
0
SECTION
2
TABLES
0
TABLE
2
VPORT
5
8
100
AcDbSymbolTable
0
ENDTAB
0
TABLE
2
LTYPE
5
5
100
AcDbSymbolTable
0
LTYPE
5
14
100
AcDbSymbolTableRecord
100
AcDbLinetypeTableRecord
2
BYBLOCK
70
0
0
LTYPE
5
15
100
AcDbSymbolTableRecord
100
AcDbLinetypeTableRecord
2
BYLAYER
70
0
0
LTYPE
5
16
100
AcDbSymbolTableRecord
100
AcDbLinetypeTableRecord
2
DASHED
70
0
3
Dashed __ __ __ __ __ __ __ __ __ __ __ __ __ _
72
65
73
2
40
0.75
49
0.5
74
0
49
-0.25
74
0
0
ENDTAB
0
TABLE
2
LAYER
5
2
100
AcDbSymbolTable
70
3
0
LAYER
5
50
100
AcDbSymbolTableRecord
100
AcDbLayerTableRecord
2
1
70
0
62
7
6
DASHED
0
LAYER
5
51
100
AcDbSymbolTableRecord
100
AcDbLayerTableRecord
2
0
70
0
62
7
6
CONTINUOUS
0
ENDTAB
0
TABLE
2
STYLE
5
3
100
AcDbSymbolTable
70
1
0
STYLE
5
11
100
AcDbSymbolTableRecord
100
AcDbTextStyleTableRecord
2
STANDARD
70
0
0
ENDTAB
0
TABLE
2
VIEW
5
6
100
AcDbSymbolTable
70
0
0
ENDTAB
0
TABLE
2
UCS
5
7
100
AcDbSymbolTable
70
0
0
ENDTAB
0
TABLE
2
APPID
5
9
100
AcDbSymbolTable
70
2
0
APPID
5
12
100
AcDbSymbolTableRecord
100
AcDbRegAppTableRecord
2
ACAD
70
0
0
ENDTAB
0
TABLE
2
DIMSTYLE
5
A
100
AcDbSymbolTable
70
1
0
ENDTAB
0
TABLE
2
BLOCK_RECORD
5
1
100
AcDbSymbolTable
70
1
0
BLOCK_RECORD
5
1F
100
AcDbSymbolTableRecord
100
AcDbBlockTableRecord
2
*MODEL_SPACE
0
BLOCK_RECORD
5
1B
100
AcDbSymbolTableRecord
100
AcDbBlockTableRecord
2
*PAPER_SPACE
0
ENDTAB
0
ENDSEC
0
SECTION
2
BLOCKS
0
BLOCK
5
20
100
AcDbEntity
100
AcDbBlockBegin
2
*MODEL_SPACE
0
ENDBLK
5
21
100
AcDbEntity
100
AcDbBlockEnd
0
BLOCK
5
1C
100
AcDbEntity
100
AcDbBlockBegin
2
*PAPER_SPACE
0
ENDBLK
5
1D
100
AcDbEntity
100
AcDbBlockEnd
0
ENDSEC
0
SECTION
2
ENTITIES
0
SPLINE
5
100
100
AcDbEntity
8
0
100
AcDbSpline
70
4
71
5
72
135
73
129
74
0
42
0.000000001
43
0.0000000001
44
0.0000000001
40
0
40
0
40
0
40
0
40
0
40
0
40
0.0080645161290322578
40
0.016129032258064516
40
0.024193548387096774
40
0.032258064516129031
40
0.040322580645161289
40
0.048387096774193547
40
0.056451612903225805
40
0.064516129032258063
40
0.072580645161290314
40
0.080645161290322578
40
0.088709677419354843
40
0.096774193548387094
40
0.10483870967741934
40
0.11290322580645161
40
0.12096774193548387
40
0.12903225806451613
40
0.13709677419354838
40
0.14516129032258063
40
0.15322580645161291
40
0.16129032258064516
40
0.16935483870967741
40
0.17741935483870969
40
0.18548387096774194
40
0.19354838709677419
40
0.20161290322580644
40
0.20967741935483869
40
0.21774193548387097
40
0.22580645161290322
40
0.23387096774193547
40
0.24193548387096775
40
0.25
40
0.25806451612903225
40
0.2661290322580645
40
0.27419354838709675
40
0.282258064516129
40
0.29032258064516125
40
0.29838709677419356
40
0.30645161290322581
40
0.31451612903225806
40
0.32258064516129031
40
0.33064516129032256
40
0.33870967741935482
40
0.34677419354838707
40
0.35483870967741937
40
0.36290322580645162
40
0.37096774193548387
40
0.37903225806451613
40
0.38709677419354838
40
0.39516129032258063
40
0.40322580645161288
40
0.41129032258064513
40
0.41935483870967738
40
0.42741935483870969
40
0.43548387096774194
40
0.44354838709677419
40
0.45161290322580644
40
0.45967741935483869
40
0.46774193548387094
40
0.47580645161290319
40
0.4838709677419355
40
0.49193548387096775
40
0.5
40
0.50806451612903225
40
0.5161290322580645
40
0.52419354838709675
40
0.532258064516129
40
0.54032258064516125
40
0.54838709677419351
40
0.55645161290322576
40
0.56451612903225801
40
0.57258064516129026
40
0.58064516129032251
40
0.58870967741935487
40
0.59677419354838712
40
0.60483870967741937
40
0.61290322580645162
40
0.62096774193548387
40
0.62903225806451613
40
0.63709677419354838
40
0.64516129032258063
40
0.65322580645161288
40
0.66129032258064513
40
0.66935483870967738
40
0.67741935483870963
40
0.68548387096774188
40
0.69354838709677413
40
0.70161290322580638
40
0.70967741935483875
40
0.717741935483871
40
0.72580645161290325
40
0.7338709677419355
40
0.74193548387096775
40
0.75
40
0.75806451612903225
40
0.7661290322580645
40
0.77419354838709675
40
0.782258064516129
40
0.79032258064516125
40
0.79838709677419351
40
0.80645161290322576
40
0.81451612903225801
40
0.82258064516129026
40
0.83064516129032251
40
0.83870967741935476
40
0.84677419354838712
40
0.85483870967741937
40
0.86290322580645162
40
0.87096774193548387
40
0.87903225806451613
40
0.88709677419354838
40
0.89516129032258063
40
0.90322580645161288
40
0.91129032258064513
40
0.91935483870967738
40
0.92741935483870963
40
0.93548387096774188
40
0.94354838709677413
40
0.95161290322580638
40
0.95967741935483863
40
0.967741935483871
40
0.97580645161290325
40
0.9838709677419355
40
0.99193548387096775
40
1
40
1
40
1
40
1
40
1
40
1
41
1
41
1
41
1
41
1
41
1
41
1
41
1
41
1
41
1
41
1
41
1
41
1
41
1
41
1
41
1
41
1
41
1
41
1
41
1
41
1
41
1
41
1
41
1
41
1
41
1
41
1
41
1
41
1
41
1
41
1
41
1
41
1
41
1
41
1
41
1
41
1
41
1
41
1
41
1
41
1
41
1
41
1
41
1
41
1
41
1
41
1
41
1
41
1
41
1
41
1
41
1
41
1
41
1
41
1
41
1
41
1
41
1
41
1
41
1
41
1
41
1
41
1
41
1
41
1
41
1
41
1
41
1
41
1
41
1
41
1
41
1
41
1
41
1
41
1
41
1
41
1
41
1
41
1
41
1
41
1
41
1
41
1
41
1
41
1
41
1
41
1
41
1
41
1
41
1
41
1
41
1
41
1
41
1
41
1
41
1
41
1
41
1
41
1
41
1
41
1
41
1
41
1
41
1
41
1
41
1
41
1
41
1
41
1
41
1
41
1
41
1
41
1
41
1
41
1
41
1
41
1
41
1
41
1
41
1
41
1
41
1
41
1
41
1
41
1
41
1
41
1
41
1
41
1
41
1
10
252.34721604356531
20
60.642220951874378
30
0
10
239.92648646500584
20
52.361734566168046
30
0
10
238.00917533751428
20
59.600451313812854
30
0
10
238.51019221161465
20
64.431298945952094
30
0
10
240.64406738607019
20
69.156308260818008
30
0
10
239.88196910947892
20
73.576478265047385
30
0
10
239.57712979884241
20
74.338576541638645
30
0
10
243.0827818711623
20
72.509540677819601
30
0
10
246.64917533751429
20
71.120451313812808
30
0
10
247.9602108413464
20
70.985344124637052
30
0
10
251.07052409178101
20
82.800941560890948
30
0
10
240.88917533751436
20
76.880451313812813
30
0
10
239.42471014352418
20
77.99664826927679
30
0
10
233.71612167572607
20
81.908015533347438
30
0
10
236.68115634779559
20
88.208765175599837
30
0
10
235.91905807120435
20
89.428122418145904
30
0
10
241.86342462861631
20
86.379729311780807
30
0
10
249.47229539150217
20
84.576751227867419
30
0
10
249.29471442480457
20
89.904180228796875
30
0
10
241.86346091918472
20
90.190194652077054
30
0
10
236.98603194900051
20
91.104712583986611
30
0
10
235.76667470645452
20
93.695846724396944
30
0
10
235.61425505113621
20
99.030534660535849
30
0
10
235.30933849752438
20
104.06042817368173
30
0
10
239.57708884643549
20
104.06042817368173
30
0
10
243.38758022939189
20
101.92655299922617
30
0
10
248.11258954425773
20
103.29832989709045
30
0
10
241.40612471025463
20
107.71849990131983
30
0
10
238.00917533751431
20
108.56045131381272
30
0
10
236.22385642943385
20
114.42496473532309
30
0
10
234.39482056561479
20
118.23545611827942
30
0
10
234.54724022093308
20
121.89352784591755
30
0
10
236.37627608475213
20
125.39917991823742
30
0
10
236.68111539538864
20
126.92337647141997
30
0
10
246.64917533751429
20
120.82659025868975
30
0
10
248.56984851021255
20
121.28384922464456
30
0
10
248.56984851021255
20
123.1128850884636
30
0
10
245.3690357485292
20
134.23951992669623
30
0
10
238.20531194857119
20
136.06855579051526
30
0
10
236.68118531170859
20
136.37341310469714
30
0
10
236.07150669043557
20
149.17666415143057
30
0
10
236.07150669043557
20
152.07263760247741
30
0
10
243.3265584267034
20
147.27309167072261
30
0
10
245.31822968352714
20
147.27309167072261
30
0
10
245.31822968352714
20
151.85393556141719
30
0
10
241.53405429556202
20
155.83727807506475
30
0
10
238.74571453600873
20
156.43477945211185
30
0
10
238.74571453600873
20
161.01562334280652
30
0
10
242.33072279829156
20
161.01562334280652
30
0
10
243.7691753375143
20
157.52045131381263
30
0
10
245.31822968352714
20
160.61728909144176
30
0
10
242.13155567260918
20
165.99480148486595
30
0
10
240.88917533751436
20
169.04045131381255
30
0
10
240.88917533751436
20
171.92045131381261
30
0
10
243.7691753375143
20
171.92045131381261
30
0
10
246.64917533751429
20
166.16045131381259
30
0
10
247.90740231739804
20
166.19396861054827
30
0
10
246.64917533751429
20
171.92045131381261
30
0
10
248.70407082012753
20
175.55482351761998
30
0
10
251.29324345399846
20
178.54233040285555
30
0
10
253.28491471082219
20
178.54233040285555
30
0
10
253.08574758513984
20
174.1606536378433
30
0
10
250.09824069990415
20
170.57564537556058
30
0
10
251.09407632831605
20
168.38480699305438
30
0
10
255.47575309332836
20
173.36398513511384
30
0
10
261.04917533751427
20
177.68045131381254
30
0
10
263.84077237198812
20
175.75399064330236
30
0
10
263.84077237198812
20
173.36398513511384
30
0
10
257.66659147583448
20
170.37647824987815
30
0
10
252.48831725744395
20
164.40150301470695
30
0
10
251.69164875471452
20
161.01566187810653
30
0
10
251.49248162903211
20
160.01982624969463
30
0
10
257.06916114813862
20
164.6006701403893
30
0
10
264.63751192406892
20
164.6006701403893
30
0
10
264.63751192406892
20
159.02399062128273
30
0
10
257.46749539950343
20
159.02399062128273
30
0
10
252.40917533751428
20
157.52045131381263
30
0
10
252.40917533751428
20
154.6404513138126
30
0
10
252.40917533751428
20
148.88045131381264
30
0
10
256.47165977109148
20
149.66313571421111
30
0
10
265.03584617543368
20
152.25230834808198
30
0
10
266.80917533751426
20
148.88045131381264
30
0
10
265.63334755248081
20
139.10727805304518
30
0
10
254.4799885142678
20
136.71727254485666
30
0
10
253.68332001153823
20
133.53059853393864
30
0
10
253.68332001153823
20
129.54725602029114
30
0
10
253.68332001153823
20
127.15725051210259
30
0
10
254.67903309257628
20
124.96636229006562
30
0
10
262.24738386850663
20
127.75470204961888
30
0
10
269.01906614170736
20
127.75470204961888
30
0
10
271.01073739853115
20
124.56802803870083
30
0
10
271.80740590126061
20
119.1905156452767
30
0
10
268.2223976389779
20
117.39801151413532
30
0
10
265.63322500510696
20
116.00384163435869
30
0
10
265.83239213078929
20
113.61383612617018
30
0
10
270.61240314716639
20
114.41050462889969
30
0
10
270.61240314716639
20
111.22383061798168
30
0
10
264.83655650237745
20
109.63049361252267
30
0
10
261.04917533751427
20
111.44045131381273
30
0
10
255.28917533708221
20
114.32045131396433
30
0
10
255.28917533711311
20
108.56045131395643
30
0
10
254.08153171553886
20
100.46880583390274
30
0
10
257.8657071028328
20
101.86297571353437
30
0
10
267.42572913695517
20
104.8504825995069
30
0
10
275.44917535312538
20
105.68045131899109
30
0
10
263.92917533751421
20
97.040451313812781
30
0
10
279.17658958333379
20
98.277967448627209
30
0
10
279.17658958200445
20
93.697123557932571
30
0
10
279.17658958490631
20
87.124607993334962
30
0
10
275.44917533751425
20
88.400451313812766
30
0
10
269.6891753375142
20
91.280451313812776
30
0
10
263.92917533751421
20
91.280451313812776
30
0
10
259.8573921652486
20
87.323773877268934
30
0
10
259.06072571428638
20
85.132942349110181
30
0
10
259.06072924704017
20
75.373636492524867
30
0
10
264.21151562740698
20
75.875283859682682
30
0
10
266.52006819447644
20
83.688846394379198
30
0
10
281.20917533751418
20
85.520451313812771
30
0
10
279.96816400360666
20
77.769819321745587
30
0
10
276.24771083867222
20
75.321264999262837
30
0
10
272.29566051822144
20
70.051864571995182
30
0
10
280.57614690392779
20
61.583185313886432
30
0
10
267.13720651106809
20
64.440112844144011
30
0
10
258.16917533751428
20
68.240451313812827
30
0
10
263.07420977050299
20
58.007520738240558
30
0
10
263.56281383482872
20
52.918138648397239
30
0
10
270.45571899289462
20
47.591309972720666
30
0
10
269.69446593738883
20
40.688648604491974
30
0
10
269.68917533751414
20
39.440451313812893
30
0
0
LINE
5
101
100
AcDbEntity
8
0
100
AcDbLine
10
269.68917533751414
20
39.440451313812893
30
0
11
255.34016011842141
21
39.501270944400332
31
0
0
SPLINE
5
102
100
AcDbEntity
8
0
100
AcDbSpline
70
4
71
3
72
8
73
4
74
0
42
0.000000001
43
0.0000000001
44
0.0000000001
40
0
40
0
40
0
40
0
40
1
40
1
40
1
40
1
41
1
41
1
41
1
41
1
10
252.34721604356531
20
60.642220951874378
30
0
10
259.49854519485712
20
56.690170631423626
30
0
10
261.25348639050145
20
46.555264567818156
30
0
10
255.34016011842141
20
39.501270944400332
30
0
0
ENDSEC
0
SECTION
2
OBJECTS
0
DICTIONARY
5
C
100
AcDbDictionary
3
ACAD_GROUP
350
D
3
ACAD_MLINESTYLE
350
17
0
DICTIONARY
5
D
100
AcDbDictionary
0
DICTIONARY
5
1A
330
C
100
AcDbDictionary
0
DICTIONARY
5
17
100
AcDbDictionary
0
ENDSEC
0
EOF
